<svg width="42" height="58" viewBox="0 0 42 58" fill="none" xmlns="http://www.w3.org/2000/svg">
<path d="M14.9262 22.4309H0L20.4554 58L35.2892 57.826L14.9262 22.4309Z" fill="black"/>
<path d="M24.9231 0H3.19385L9.70154 11.3253H23.9354C24.6897 11.2949 25.4425 11.4161 26.1484 11.6814C26.8544 11.9468 27.499 12.3509 28.0435 12.8695C28.5881 13.3882 29.0213 14.0106 29.3173 14.6994C29.6133 15.3883 29.7658 16.1293 29.7658 16.8781C29.7658 17.6269 29.6133 18.368 29.3173 19.0568C29.0213 19.7457 28.5881 20.3681 28.0435 20.8867C27.499 21.4054 26.8544 21.8095 26.1484 22.0748C25.4425 22.3402 24.6897 22.4613 23.9354 22.4309H16.0892L22.6708 33.8753H24.9231C29.4522 33.8753 33.7957 32.0908 36.9983 28.9144C40.2008 25.7379 42 21.4298 42 16.9376V16.9376C42 12.4455 40.2008 8.13735 36.9983 4.96092C33.7957 1.7845 29.4522 0 24.9231 0V0Z" fill="black"/>
</svg>
